<svg width="64" height="60" viewBox="0 0 64 60" fill="none" xmlns="http://www.w3.org/2000/svg">
<path d="M0 16C0 8.45753 0 4.68629 2.34315 2.34315C4.68629 0 8.45753 0 16 0H27.2533C34.5748 0 38.2355 0 41.3905 1.5688C44.5455 3.13759 46.7548 6.05642 51.1735 11.8941L59.1084 22.3771C61.7056 25.8082 63.0041 27.5237 63.02 29.5118C63.0359 31.4999 61.7649 33.236 59.2228 36.7081L51.1597 47.7217C46.7508 53.7438 44.5463 56.7549 41.3475 58.3775C38.1487 60 34.417 60 26.9534 60H16C8.45753 60 4.68629 60 2.34315 57.6569C0 55.3137 0 51.5425 0 44V31V16Z" fill="white" fill-opacity="0.05"/>
<path d="M16 0.5H27.2533C34.6246 0.5 38.1427 0.512281 41.1679 2.0165C44.193 3.52073 46.3261 6.31841 50.7749 12.1958L58.7098 22.6788C60.0154 24.4038 60.9682 25.6638 61.6013 26.7392C62.2278 27.8034 62.513 28.6417 62.52 29.5158C62.527 30.3899 62.2551 31.2327 61.6457 32.3067C61.0299 33.3921 60.0974 34.6672 58.8194 36.4128L50.7562 47.4263C46.3172 53.4896 44.1884 56.3758 41.1213 57.9315C38.0543 59.4873 34.468 59.5 26.9534 59.5H16C12.2146 59.5 9.4259 59.4989 7.28845 59.2116C5.16538 58.9261 3.75989 58.3665 2.6967 57.3033C1.63351 56.2401 1.07387 54.8346 0.788435 52.7116C0.501062 50.5741 0.5 47.7854 0.5 44V31V16C0.5 12.2146 0.501062 9.4259 0.788435 7.28845C1.07387 5.16538 1.63351 3.75989 2.6967 2.6967C3.75989 1.63351 5.16538 1.07387 7.28845 0.788435C9.4259 0.501062 12.2146 0.5 16 0.5Z" stroke="#8A95A4" stroke-opacity="0.15"/>
</svg>
