<svg width="285" height="60" viewBox="0 0 285 60" fill="none" xmlns="http://www.w3.org/2000/svg">
<path d="M6.91473 15.7066C2.12453 8.81334 -0.270576 5.36673 1.13237 2.68337C2.53532 0 6.73242 0 15.1266 0H264.735C275.859 0 281.421 0 283.798 3.54412C283.898 3.69374 283.993 3.84671 284.083 4.00276C286.216 7.69924 283.762 12.6908 278.855 22.6738C277.235 25.9692 276.426 27.6169 276.387 29.3858C276.386 29.4658 276.385 29.5458 276.386 29.6258C276.401 31.395 277.189 33.0532 278.766 36.3694L279.128 37.1303C284.014 47.4077 286.457 52.5465 284.102 56.2732C281.747 60 276.057 60 264.677 60H14.7702C6.51246 60 2.38359 60 0.97229 57.351C-0.439006 54.7019 1.86423 51.2752 6.4707 44.4216L10.3998 38.5759C13.3528 34.1824 14.8293 31.9857 14.8101 29.5131C14.7909 27.0405 13.2805 24.867 10.2596 20.52L6.91473 15.7066Z" fill="white"/>
<path d="M7.32533 15.4212C4.92052 11.9607 3.15079 9.41166 2.14896 7.39391C1.14677 5.37546 0.988908 4.03692 1.57547 2.91503C2.16202 1.79314 3.35131 1.15893 5.58074 0.830068C7.8094 0.501324 10.9125 0.5 15.1266 0.5H264.735C270.313 0.5 274.441 0.501246 277.475 0.937915C280.503 1.37366 282.312 2.22672 283.383 3.82261C283.477 3.96286 283.566 4.10628 283.65 4.25262C284.61 5.91708 284.578 7.91713 283.633 10.8264C282.687 13.7419 280.867 17.4473 278.407 22.4532L278.343 22.5823C276.784 25.7538 275.928 27.495 275.888 29.375C275.886 29.4601 275.885 29.545 275.886 29.63C275.902 31.5104 276.735 33.2626 278.252 36.454L278.314 36.5841L278.676 37.3449C281.126 42.4987 282.938 46.313 283.852 49.3043C284.763 52.2878 284.74 54.3264 283.679 56.0062C282.618 57.6859 280.786 58.5817 277.701 59.0396C274.607 59.4987 270.384 59.5 264.677 59.5H14.7702C10.6243 59.5 7.57243 59.4987 5.37692 59.1742C3.18173 58.8499 2.00409 58.2243 1.41357 57.1159C0.823051 56.0075 0.960789 54.6811 1.91612 52.6782C2.8716 50.6751 4.57296 48.1414 6.88568 44.7006L10.8148 38.8548L10.8322 38.8288C12.294 36.654 13.414 34.9877 14.1626 33.5558C14.9199 32.1073 15.3205 30.857 15.3101 29.5092C15.2996 28.1615 14.8796 26.9176 14.0999 25.4809C13.3291 24.0609 12.1834 22.4121 10.688 20.2601L10.6702 20.2346L7.32533 15.4212Z" stroke="#8A95A4" stroke-opacity="0.1"/>
</svg>
