<svg width="25" height="24" viewBox="0 0 25 24" fill="none" xmlns="http://www.w3.org/2000/svg">
<path d="M20.7541 6.82L14.9941 2.79C13.4241 1.69 11.0141 1.75 9.5041 2.92L4.4941 6.83C3.4941 7.61 2.7041 9.21 2.7041 10.47V17.37C2.7041 19.92 4.7741 22 7.3241 22H18.1041C20.6541 22 22.7241 19.93 22.7241 17.38V10.6C22.7241 9.25 21.8541 7.59 20.7541 6.82ZM13.4641 18C13.4641 18.41 13.1241 18.75 12.7141 18.75C12.3041 18.75 11.9641 18.41 11.9641 18V15C11.9641 14.59 12.3041 14.25 12.7141 14.25C13.1241 14.25 13.4641 14.59 13.4641 15V18Z" fill="white"/>
</svg>
