<svg width="24" height="24" viewBox="0 0 24 24" fill="none" xmlns="http://www.w3.org/2000/svg">
<path d="M12.002 2C6.48195 2 2.00195 6.48 2.00195 12C2.00195 17.52 6.48195 22 12.002 22C17.522 22 22.002 17.52 22.002 12C22.002 6.48 17.522 2 12.002 2ZM17.002 17.47C15.292 17.47 13.692 16.73 12.412 15.36C10.962 16.67 9.07195 17.47 7.00195 17.47C6.59195 17.47 6.25195 17.13 6.25195 16.72C6.25195 16.31 6.59195 15.97 7.00195 15.97C10.472 15.97 13.342 13.22 13.712 9.7H12.002H7.01195C6.60195 9.7 6.26195 9.36 6.26195 8.95C6.26195 8.54 6.60195 8.21 7.01195 8.21H11.252V7.28C11.252 6.87 11.592 6.53 12.002 6.53C12.412 6.53 12.752 6.87 12.752 7.28V8.21H14.442C14.462 8.21 14.482 8.2 14.502 8.2C14.522 8.2 14.542 8.21 14.562 8.21H16.992C17.402 8.21 17.742 8.55 17.742 8.96C17.742 9.37 17.402 9.71 16.992 9.71H15.212C15.062 11.42 14.422 12.99 13.442 14.27C14.442 15.38 15.692 15.98 17.002 15.98C17.412 15.98 17.752 16.32 17.752 16.73C17.752 17.14 17.412 17.47 17.002 17.47Z" fill="#7D6CF5"/>
</svg>
