<svg width="26" height="26" viewBox="0 0 26 26" fill="none" xmlns="http://www.w3.org/2000/svg">
<path d="M23.3241 17.2574C23.1508 16.9649 22.6633 16.5099 21.4499 16.7266C20.7783 16.8457 20.0958 16.8999 19.4133 16.8674C16.8891 16.7591 14.6033 15.5999 13.0108 13.8124C11.6024 12.2416 10.7358 10.1941 10.7249 7.98407C10.7249 6.74907 10.9633 5.5574 11.4508 4.43074C11.9274 3.33657 11.5916 2.7624 11.3533 2.52407C11.1041 2.2749 10.5191 1.92824 9.37076 2.4049C4.93993 4.26824 2.19909 8.7099 2.52409 13.4657C2.84909 17.9399 5.99076 21.7641 10.1508 23.2049C11.1474 23.5516 12.1983 23.7574 13.2816 23.8007C13.4549 23.8116 13.6283 23.8224 13.8016 23.8224C17.4308 23.8224 20.8324 22.1107 22.9774 19.1966C23.7033 18.1891 23.5083 17.5499 23.3241 17.2574Z" fill="#7C6BF4"/>
</svg>
