<svg width="26" height="26" viewBox="0 0 26 26" fill="none" xmlns="http://www.w3.org/2000/svg">
<path d="M20.0849 4.46333L14.1265 2.23166C13.509 2.00416 12.5015 2.00416 11.884 2.23166L5.9257 4.46333C4.77737 4.89666 3.8457 6.23999 3.8457 7.46416V16.2392C3.8457 17.1167 4.41987 18.2758 5.12404 18.7958L11.0824 23.2483C12.1332 24.0392 13.8557 24.0392 14.9065 23.2483L20.8649 18.7958C21.569 18.265 22.1432 17.1167 22.1432 16.2392V7.46416C22.154 6.23999 21.2224 4.89666 20.0849 4.46333ZM16.7699 10.53L12.1115 15.1883C11.949 15.3508 11.7432 15.4267 11.5374 15.4267C11.3315 15.4267 11.1257 15.3508 10.9632 15.1883L9.22987 13.4333C8.9157 13.1192 8.9157 12.5992 9.22987 12.285C9.54404 11.9708 10.064 11.9708 10.3782 12.285L11.5482 13.455L15.6324 9.37083C15.9465 9.05666 16.4665 9.05666 16.7807 9.37083C17.0949 9.68499 17.0949 10.2158 16.7699 10.53Z" fill="#7D6CF5"/>
</svg>
