<svg width="26" height="26" viewBox="0 0 26 26" fill="none" xmlns="http://www.w3.org/2000/svg">
<path d="M23.3565 11.6351L21.8831 9.92344C21.6015 9.59844 21.374 8.99177 21.374 8.55844V6.71677C21.374 5.56844 20.4315 4.62594 19.2831 4.62594H17.4415C17.019 4.62594 16.4015 4.39844 16.0765 4.11677L14.3648 2.64344C13.6173 2.00427 12.3931 2.00427 11.6348 2.64344L9.93396 4.1276C9.60896 4.39844 8.99146 4.62594 8.56896 4.62594H6.69479C5.54646 4.62594 4.60396 5.56844 4.60396 6.71677V8.56927C4.60396 8.99177 4.37646 9.59844 4.10562 9.92344L2.64313 11.6459C2.01479 12.3934 2.01479 13.6068 2.64313 14.3543L4.10562 16.0768C4.37646 16.4018 4.60396 17.0084 4.60396 17.4309V19.2834C4.60396 20.4318 5.54646 21.3743 6.69479 21.3743H8.56896C8.99146 21.3743 9.60896 21.6018 9.93396 21.8834L11.6456 23.3568C12.3931 23.9959 13.6173 23.9959 14.3756 23.3568L16.0873 21.8834C16.4123 21.6018 17.019 21.3743 17.4523 21.3743H19.294C20.4423 21.3743 21.3848 20.4318 21.3848 19.2834V17.4418C21.3848 17.0193 21.6123 16.4018 21.894 16.0768L23.3673 14.3651C23.9956 13.6176 23.9956 12.3826 23.3565 11.6351ZM18.0698 13.0001L16.8023 16.8568C16.6398 17.4959 15.9573 18.0159 15.264 18.0159H13.2598C12.9131 18.0159 12.4256 17.8968 12.209 17.6801L10.6165 16.4343C10.584 17.1276 10.2698 17.4201 9.50063 17.4201H8.98063C8.17896 17.4201 7.85396 17.1059 7.85396 16.3476V11.1693C7.85396 10.4109 8.17896 10.0968 8.98063 10.0968H9.51146C10.3131 10.0968 10.6381 10.4109 10.6381 11.1693V11.5593L12.7398 8.43927C12.9565 8.10344 13.509 7.8651 13.9748 8.04927C14.484 8.2226 14.809 8.78594 14.7006 9.28427L14.4406 10.9743C14.419 11.1259 14.4515 11.2668 14.549 11.3751C14.6356 11.4726 14.7656 11.5376 14.9065 11.5376H17.019C17.4306 11.5376 17.7773 11.7001 17.9831 11.9926C18.1673 12.2743 18.1998 12.6318 18.0698 13.0001Z" fill="#7D6CF5"/>
</svg>
