<svg width="25" height="24" viewBox="0 0 25 24" fill="none" xmlns="http://www.w3.org/2000/svg">
<path d="M12.2139 21C17.4606 21 21.7139 16.7467 21.7139 11.5C21.7139 6.25329 17.4606 2 12.2139 2C6.96716 2 2.71387 6.25329 2.71387 11.5C2.71387 16.7467 6.96716 21 12.2139 21Z" fill="white"/>
<path d="M22.0134 22.0001C21.8334 22.0001 21.6534 21.9301 21.5234 21.8001L19.6634 19.9401C19.3934 19.6701 19.3934 19.2301 19.6634 18.9501C19.9334 18.6801 20.3734 18.6801 20.6534 18.9501L22.5134 20.8101C22.7834 21.0801 22.7834 21.5201 22.5134 21.8001C22.3734 21.9301 22.1934 22.0001 22.0134 22.0001Z" fill="white"/>
</svg>
