<svg width="25" height="24" viewBox="0 0 25 24" fill="none" xmlns="http://www.w3.org/2000/svg">
<path d="M20.8139 9.22C19.0039 9.22 18.2639 7.94 19.1639 6.37C19.6839 5.46 19.3739 4.3 18.4639 3.78L16.7339 2.79C15.9439 2.32 14.9239 2.6 14.4539 3.39L14.3439 3.58C13.4439 5.15 11.9639 5.15 11.0539 3.58L10.9439 3.39C10.4939 2.6 9.47387 2.32 8.68387 2.79L6.95387 3.78C6.04387 4.3 5.73387 5.47 6.25387 6.38C7.16387 7.94 6.42387 9.22 4.61387 9.22C3.57387 9.22 2.71387 10.07 2.71387 11.12V12.88C2.71387 13.92 3.56387 14.78 4.61387 14.78C6.42387 14.78 7.16387 16.06 6.25387 17.63C5.73387 18.54 6.04387 19.7 6.95387 20.22L8.68387 21.21C9.47387 21.68 10.4939 21.4 10.9639 20.61L11.0739 20.42C11.9739 18.85 13.4539 18.85 14.3639 20.42L14.4739 20.61C14.9439 21.4 15.9639 21.68 16.7539 21.21L18.4839 20.22C19.3939 19.7 19.7039 18.53 19.1839 17.63C18.2739 16.06 19.0139 14.78 20.8239 14.78C21.8639 14.78 22.7239 13.93 22.7239 12.88V11.12C22.7139 10.08 21.8639 9.22 20.8139 9.22ZM12.7139 15.25C10.9239 15.25 9.46387 13.79 9.46387 12C9.46387 10.21 10.9239 8.75 12.7139 8.75C14.5039 8.75 15.9639 10.21 15.9639 12C15.9639 13.79 14.5039 15.25 12.7139 15.25Z" fill="white"/>
</svg>
