<svg width="25" height="24" viewBox="0 0 25 24" fill="none" xmlns="http://www.w3.org/2000/svg">
<path d="M12.7139 15C14.3707 15 15.7139 13.6569 15.7139 12C15.7139 10.3431 14.3707 9 12.7139 9C11.057 9 9.71387 10.3431 9.71387 12C9.71387 13.6569 11.057 15 12.7139 15Z" stroke="#8A95A4" stroke-width="1.5" stroke-miterlimit="10" stroke-linecap="round" stroke-linejoin="round"/>
<path d="M2.71387 12.88V11.12C2.71387 10.08 3.56387 9.22 4.61387 9.22C6.42387 9.22 7.16387 7.94 6.25387 6.37C5.73387 5.47 6.04387 4.3 6.95387 3.78L8.68387 2.79C9.47387 2.32 10.4939 2.6 10.9639 3.39L11.0739 3.58C11.9739 5.15 13.4539 5.15 14.3639 3.58L14.4739 3.39C14.9439 2.6 15.9639 2.32 16.7539 2.79L18.4839 3.78C19.3939 4.3 19.7039 5.47 19.1839 6.37C18.2739 7.94 19.0139 9.22 20.8239 9.22C21.8639 9.22 22.7239 10.07 22.7239 11.12V12.88C22.7239 13.92 21.8739 14.78 20.8239 14.78C19.0139 14.78 18.2739 16.06 19.1839 17.63C19.7039 18.54 19.3939 19.7 18.4839 20.22L16.7539 21.21C15.9639 21.68 14.9439 21.4 14.4739 20.61L14.3639 20.42C13.4639 18.85 11.9839 18.85 11.0739 20.42L10.9639 20.61C10.4939 21.4 9.47387 21.68 8.68387 21.21L6.95387 20.22C6.04387 19.7 5.73387 18.53 6.25387 17.63C7.16387 16.06 6.42387 14.78 4.61387 14.78C3.56387 14.78 2.71387 13.92 2.71387 12.88Z" stroke="#8A95A4" stroke-width="1.5" stroke-miterlimit="10" stroke-linecap="round" stroke-linejoin="round"/>
</svg>
