<svg width="26" height="26" viewBox="0 0 26 26" fill="none" xmlns="http://www.w3.org/2000/svg">
<path d="M22.0568 13.7908C21.656 13.7908 21.3202 13.4875 21.2768 13.0866C21.0168 10.7033 19.7385 8.55829 17.7668 7.19329C17.4093 6.94412 17.3227 6.45662 17.5718 6.09912C17.821 5.74162 18.3085 5.65496 18.666 5.90412C21.0168 7.53996 22.5335 10.0966 22.8477 12.9241C22.891 13.3575 22.5768 13.7475 22.1435 13.7908C22.111 13.7908 22.0893 13.7908 22.0568 13.7908Z" fill="#7D6CF5"/>
<path d="M4.05157 13.845C4.02991 13.845 3.99741 13.845 3.97574 13.845C3.54241 13.8016 3.22824 13.4116 3.27157 12.9783C3.56407 10.1508 5.05907 7.59414 7.38824 5.94747C7.73491 5.69831 8.23324 5.78497 8.48241 6.13164C8.73157 6.48914 8.64491 6.97664 8.29824 7.22581C6.34824 8.61247 5.08074 10.7575 4.84241 13.13C4.79907 13.5416 4.45241 13.845 4.05157 13.845Z" fill="#7D6CF5"/>
<path d="M17.323 22.8583C15.9905 23.4975 14.5605 23.8225 13.0655 23.8225C11.5055 23.8225 10.0213 23.4758 8.63464 22.7716C8.24464 22.5875 8.09298 22.1108 8.28798 21.7208C8.47214 21.3308 8.94881 21.1791 9.33881 21.3633C10.0213 21.71 10.7471 21.9483 11.4838 22.0891C12.4805 22.2841 13.4988 22.295 14.4955 22.1216C15.2321 21.9916 15.958 21.7641 16.6296 21.4391C17.0305 21.255 17.5071 21.4066 17.6805 21.8075C17.8755 22.1975 17.7238 22.6741 17.323 22.8583Z" fill="#7D6CF5"/>
<path d="M13.054 2.17749C11.3749 2.17749 9.99902 3.54249 9.99902 5.23249C9.99902 6.92249 11.364 8.28749 13.054 8.28749C14.744 8.28749 16.109 6.92249 16.109 5.23249C16.109 3.54249 14.744 2.17749 13.054 2.17749Z" fill="#7D6CF5"/>
<path d="M5.47102 15.0259C3.79185 15.0259 2.41602 16.3909 2.41602 18.0809C2.41602 19.7709 3.78102 21.1359 5.47102 21.1359C7.16102 21.1359 8.52602 19.7709 8.52602 18.0809C8.52602 16.3909 7.15018 15.0259 5.47102 15.0259Z" fill="#7D6CF5"/>
<path d="M20.5296 15.0259C18.8504 15.0259 17.4746 16.3909 17.4746 18.0809C17.4746 19.7709 18.8396 21.1359 20.5296 21.1359C22.2196 21.1359 23.5846 19.7709 23.5846 18.0809C23.5846 16.3909 22.2196 15.0259 20.5296 15.0259Z" fill="#7D6CF5"/>
</svg>
