<svg width="26" height="26" viewBox="0 0 26 26" fill="none" xmlns="http://www.w3.org/2000/svg">
<path d="M22.6421 10.6708L23.2813 21.385C23.3029 21.6775 23.1621 21.8725 23.0863 21.9592C22.9996 22.0567 22.8154 22.2083 22.5121 22.2083H19.5546L21.8946 10.6708H22.6421ZM23.8338 6.5L23.8229 6.52167C23.8446 6.78167 23.8229 7.0525 23.7579 7.32333L15.7738 21.9808C15.5138 23.075 14.5388 23.8333 13.4121 23.8333H22.5121C23.9096 23.8333 25.0146 22.6525 24.9063 21.255L23.8338 6.5Z" fill="#7D6CF5"/>
<path d="M12.4046 2.42668C12.5129 1.99335 12.2421 1.54918 11.8087 1.44085C11.3754 1.34335 10.9312 1.60335 10.8229 2.03668L10.2812 4.27918H11.9496L12.4046 2.42668Z" fill="#7D6CF5"/>
<path d="M19.5546 2.3941C19.6521 1.94994 19.3704 1.52744 18.9263 1.42994C18.4929 1.33244 18.0596 1.6141 17.9621 2.05827L17.4746 4.30077H19.1429L19.5546 2.3941Z" fill="#7D6CF5"/>
<path d="M23.6387 5.77414C23.2812 4.90748 22.4362 4.28998 21.3962 4.28998H19.1429L18.5362 7.09581C18.4496 7.47498 18.1137 7.73498 17.7454 7.73498C17.6912 7.73498 17.6262 7.73498 17.5721 7.71331C17.1387 7.61581 16.8571 7.18248 16.9437 6.74914L17.4746 4.27914H11.9496L11.2671 7.09581C11.1804 7.46414 10.8446 7.71331 10.4762 7.71331C10.4112 7.71331 10.3462 7.70248 10.2812 7.69164C9.84789 7.58331 9.57705 7.14998 9.68538 6.70581L10.2704 4.26831H8.07122C7.00955 4.26831 6.06705 4.96164 5.75289 5.97998L1.19205 20.6591C0.715385 22.23 1.87455 23.8333 3.51039 23.8333H17.7454C18.8721 23.8333 19.8471 23.075 20.1071 21.9808L23.7579 7.32331C23.8229 7.05248 23.8446 6.78164 23.8229 6.52164C23.8012 6.26164 23.7471 6.00164 23.6387 5.77414ZM15.9254 18.1458H7.25872C6.81455 18.1458 6.44622 17.7775 6.44622 17.3333C6.44622 16.8891 6.81455 16.5208 7.25872 16.5208H15.9254C16.3696 16.5208 16.7379 16.8891 16.7379 17.3333C16.7379 17.7775 16.3696 18.1458 15.9254 18.1458ZM17.0087 13.8125H8.34205C7.89788 13.8125 7.52955 13.4441 7.52955 13C7.52955 12.5558 7.89788 12.1875 8.34205 12.1875H17.0087C17.4529 12.1875 17.8212 12.5558 17.8212 13C17.8212 13.4441 17.4529 13.8125 17.0087 13.8125Z" fill="#7D6CF5"/>
</svg>
